<svg xmlns="http://www.w3.org/2000/svg" xmlns:xlink="http://www.w3.org/1999/xlink" width="500" zoomAndPan="magnify" viewBox="0 0 375 374.999991" height="500" preserveAspectRatio="xMidYMid meet" version="1.0"><defs><g/></defs><path stroke-linecap="butt" transform="matrix(0.75, 0, 0, 0.75, 15.395065, 135.814592)" fill="none" stroke-linejoin="miter" d="M 102.999296 84.210758 C 101.13992 84.210758 99.54617 83.898258 98.223254 83.26805 C 96.910754 82.637841 95.785753 81.554508 94.853462 80.018049 C 91.73367 77.663883 90.176378 74.320132 90.176378 69.98159 C 90.176378 66.91909 90.95242 63.705548 92.504503 60.330548 C 94.067003 56.960756 96.207629 53.590964 98.926379 50.221172 C 101.639921 46.846172 104.806587 43.617005 108.415963 40.528463 C 112.025338 37.424297 115.89513 34.611796 120.014922 32.10138 C 123.962839 29.637838 127.712839 27.762838 131.270131 26.481588 C 134.827423 25.184712 137.952423 24.533671 140.639923 24.533671 C 142.004507 24.533671 143.197215 24.757629 144.21284 25.195129 C 145.228465 25.637838 146.259715 26.460754 147.301382 27.663879 C 148.665965 29.309713 149.389924 30.502421 149.473257 31.236796 C 149.551382 31.971171 149.36909 32.393046 148.93159 32.502421 C 141.973257 34.69513 135.494089 37.450338 129.483672 40.768047 C 123.494089 44.085755 118.223255 47.679506 113.671171 51.544089 C 109.124296 55.398256 105.504504 59.309715 102.817004 63.283673 C 100.13992 67.252424 98.665962 70.992007 98.384712 74.497216 C 98.822212 74.726382 99.51492 74.840966 100.447212 74.840966 C 102.202421 74.840966 104.228462 74.554507 106.530546 73.976382 C 108.832629 73.403466 111.254504 72.606591 113.796171 71.590966 C 116.348255 70.570132 118.83263 69.393049 121.23888 68.059715 C 123.64513 66.721174 125.837839 65.309715 127.822214 63.82534 C 128.530547 63.273257 128.884714 63.299298 128.884714 63.903465 C 128.884714 64.893048 128.676381 66.04409 128.259714 67.35659 C 127.858672 68.663882 127.296172 69.736799 126.577422 70.564924 C 124.223255 73.309716 121.671172 75.710757 118.931588 77.768049 C 116.202421 79.814924 113.478463 81.403466 110.764921 82.523258 C 108.046171 83.648258 105.457629 84.210758 102.999296 84.210758 Z M 130.030547 82.564925 C 128.827422 82.564925 127.348256 81.960758 125.598255 80.757633 C 124.660755 80.101383 123.978464 79.460758 123.55138 78.830549 C 123.108672 78.189924 122.884714 77.434716 122.884714 76.564924 C 122.884714 75.132632 123.348255 73.580549 124.27013 71.908674 C 125.20763 70.236799 126.660756 68.0.0.85 128.624297 65.471173 C 131.155547 62.070132 133.238881 59.127423 134.884714 56.63784 C 136.530548 54.137839 137.629506 52.367006 138.176381 51.320131 C 138.389923 50.893047 138.942006 50.705547 139.822215 50.762839 C 141.520131 50.867006 142.999298 51.247214 144.259715 51.903464 C 144.858673 52.236798 145.280548 52.773256 145.520132 53.507631 C 145.77534 54.247214 145.68159 55.518048 145.238882 57.320131 C 147.488882 55.408673 149.676382 53.757631 151.801382 52.367006 C 153.942007 50.960756 156.160757 49.601381 158.462841 48.294089 C 159.947216 47.460756 160.827424 47.049297 161.093049 47.049297 C 161.426383 47.049297 161.660758 47.294089 161.796174 47.788881 C 161.926383 48.283672 161.994091 48.752422 161.994091 49.195131 C 161.994091 49.585756 161.853466 49.929506 161.572216 50.236797 C 161.306591 50.533672 160.931591 50.867006 160.452424 51.242006 C 156.608674 54.038881 152.650341 57.45034 148.572215 61.476382 C 144.488882 65.502423 140.0.884 70.752424 135.369089 77.226383 C 134.218048 78.804508 133.327423 79.981591 132.697214 80.757633 C 132.072214 81.523258 131.577422 82.007633 131.212839 82.226383 C 130.863881 82.450341 130.473256 82.564925 130.030547 82.564925 Z M 157.077424 83.0493 C 155.327424 83.0493 153.817007 82.721175 152.546174 82.064925 C 151.285757 81.408675 150.108674 80.507633 149.014924 79.356591 C 147.098257 77.268049 146.145132 74.830549 146.145132 72.049299 C 146.145132 70.617007 146.43159 69.10659 147.004507 67.518049 C 147.582632 65.924298 148.499299 64.278465 149.754507 62.580548 C 151.11909 60.721173 152.744091 58.965965 154.629507 57.320131 C 156.530549 55.674298 158.504508 54.325339 160.551383 53.268048 C 162.608675 52.200339 164.577425 51.663881 166.452425 51.663881 C 167.817008 51.663881 169.165967 51.992006 170.504508 52.648256 C 171.853467 53.304506 172.806592 54.070131 173.353467 54.955548 C 174.504509 55.330548 175.353467 56.10659 175.900342 57.283673 C 176.447217 58.460756 176.723259 59.788881 176.723259 61.273257 C 176.723259 62.91909 176.389925 64.674298 175.71805 66.533674 C 175.067009 68.393049 174.275342 70.117007 173.353467 71.710757 C 171.3743 75.106591 168.957633 77.851383 166.108675 79.934716 C 163.259716 82.007633 160.249299 83.0493 157.077424 83.0493 Z M 159.369091 69.242007 C 158.499299 70.617007 157.817008 71.992007 157.322216 73.356591 C 156.827424 74.721174 156.686799 76.012841 156.900341 77.226383 C 158.983674 76.679508 160.999299 75.762841 162.9368 74.476382 C 164.889925 73.179507 166.645133 71.669091 168.197217 69.945132 C 169.759717 68.215965 171.009717 66.439924 171.947217 64.60659 C 172.884717 62.773257 173.353467 61.059715 173.353467 59.471173 C 173.353467 58.210756 172.962842 57.445131 172.1868 57.163881 C 170.327425 57.76284 168.223258 59.148256 165.869091 61.314923 C 163.514925 63.48159 161.348258 66.122215 159.369091 69.242007 Z M 158.468049 105.080551 C 157.863883 105.184718 157.332633 105.278468 156.863882 105.361801 C 156.395132 105.455551 155.999299 105.502426 155.681591 105.502426 C 155.077424 105.502426 154.639924 105.304509 154.374299 104.919093 C 154.093049 104.528468 154.202424 103.903468 154.697216 103.033676 C 158.910758 95.460759 162.869091 88.512842 166.577425 82.184716 C 170.264925 75.856591 173.697217 70.283674 176.869092 65.471173 C 179.181592 61.965965 181.009717 59.20034 182.348259 57.179506 C 183.686801 55.148256 184.707634 53.637839 185.415968 52.648256 C 186.139926 51.658673 186.676384 51.028464 187.020134 50.762839 C 187.384718 50.481589 187.697218 50.340964 187.962843 50.340964 C 188.244093 50.340964 188.59826 50.413881 189.030551 50.559714 C 189.468051 50.695131 190.16076 50.976381 191.093051 51.403464 C 191.926385 51.736798 192.593052 52.137839 193.103468 52.606589 C 193.624302 53.075339 193.884718 53.689923 193.884718 54.450339 C 196.905552 53.247214 199.572219 52.648256 201.869094 52.648256 C 202.968052 52.648256 203.910761 52.856589 204.702427 53.268048 C 205.488886 53.669089 206.218052 54.174298 206.889927 54.773256 C 208.306594 56.096173 209.014928 58.04409 209.014928 60.611798 C 209.014928 62.590965 208.478469 64.679507 207.410761 66.872215 C 206.337844 69.054507 204.926386 71.189924 203.176386 73.273257 C 201.759719 74.971174 200.113885 76.450341 198.238885 77.710758 C 196.37951 78.965966 194.520135 79.945133 192.66076 80.637841 C 190.801385 81.320133 189.103468 81.663883 187.561801 81.663883 C 185.811801 81.663883 184.478468 81.372216 183.572218 80.799299 C 182.676384 80.226383 181.837842 79.549299 181.061801 78.773258 C 178.884717 82.226383 176.7493 85.544091 174.660759 88.726383 C 172.572217 91.908675 170.796175 94.538884 169.322217 96.611801 C 167.676383 98.856592 166.264925 100.544092 165.087841 101.669093 C 163.910758 102.794093 162.817008 103.575343 161.801383 104.018051 C 160.780549 104.455551 159.671174 104.809718 158.468049 105.080551 Z M 184.192009 73.596174 C 186.879509 72.992007 189.415968 71.981591 191.796176 70.564924 C 194.181593 69.132632 196.28576 67.518049 198.119094 65.710757 C 199.962844 63.903465 201.389927 62.153465 202.395135 60.45034 C 203.410761 58.752423 203.889927 57.330548 203.837844 56.179506 C 202.082635 56.393048 200.072219 57.132631 197.796177 58.403465 C 195.525343 59.663881 192.853468 61.57534 189.790968 64.143048 C 188.962843 65.523257 188.077426 67.023257 187.145134 68.63784 C 186.218051 70.247215 185.238884 71.898257 184.192009 73.596174 Z M 224.707637 45.502422 C 224.332637 45.117005 224.38472 44.648255 224.863887 44.096172 C 225.910762 42.840964 227.046179 41.335755 228.275346 39.585755 C 229.520137 37.830547 230.499304 36.346172 231.207637 35.127421 C 231.421179 34.809713 231.697221 34.700338 232.030554 34.809713 C 234.223263 35.689922 235.728471 36.840963 236.546179 38.25763 C 237.093054 39.247213 236.931596 40.268047 236.061804 41.309714 C 234.082638 43.38263 232.712846 44.669089 231.947221 45.16388 C 231.228471 45.60138 230.535762 45.893047 229.884721 46.023256 C 229.228471 46.158672 228.462846 46.226381 227.593054 46.226381 C 227.207637 46.226381 226.686804 46.158672 226.030554 46.023256 C 225.374304 45.893047 224.931595 45.715964 224.707637 45.502422 Z M 212.145136 83.788883 C 211.259719 83.788883 210.379511 83.596175 209.494094 83.20555 C 208.624303 82.83055 207.837844 82.398258 207.129511 81.903466 C 206.405552 81.356591 205.796177 80.820133 205.301386 80.299299 C 204.822219 79.778466 204.436802 79.242008 204.155552 78.689924 C 203.343052 77.111799 203.275344 75.309716 203.957636 73.273257 C 204.639927 71.242007 206.186802 68.63784 208.593053 65.471173 C 210.837844 62.460757 212.707636 59.85659 214.192011 57.663881 C 215.676386 55.471173 216.692011 53.825339 217.238886 52.726381 C 217.723261 51.788881 218.082637 51.226381 218.32222 51.044089 C 218.577428 50.856589 218.97847 50.840964 219.530553 51.002423 C 220.624303 51.387839 221.723262 51.736798 222.817012 52.044089 C 223.91597 52.340964 224.738887 52.622214 225.285762 52.887839 C 226.332637 53.434714 226.879512 54.314923 226.931595 55.518048 C 226.988887 56.721173 226.296179 58.283673 224.863887 60.210756 C 223.889929 61.523257 222.801387 62.986798 221.593053 64.60659 C 220.389928 66.226382 219.238887 67.882632 218.145137 69.580549 C 217.046178 71.283674 216.098261 72.913882 215.296178 74.476382 C 214.504511 76.028466 214.030553 77.382633 213.869095 78.533674 C 215.780553 78.262841 218.051387 77.215966 220.671178 75.382632 C 223.306595 73.533674 226.405554 70.23159 229.962846 65.471173 L 230.223262 65.127423 C 230.488887 64.752423 230.692012 64.538882 230.827429 64.486798 C 230.973262 64.434715 231.098262 64.460757 231.207637 64.564923 L 231.447221 64.804507 C 231.889929 65.247215 231.942012 65.768048 231.608679 66.372215 L 231.369096 66.773257 C 230.499304 68.205549 229.306596 69.882632 227.796179 71.809716 C 226.285762 73.721174 224.613887 75.596174 222.780553 77.429508 C 220.94722 79.262841 219.093053 80.778466 217.223261 81.981591 C 215.363886 83.184716 213.671178 83.788883 212.145136 83.788883 Z M 231.702429 83.0493 C 229.952429 83.0493 228.442012 82.721175 227.171179 82.064925 C 225.910762 81.408675 224.733679 80.507633 223.639929 79.356591 C 221.723262 77.268049 220.770137 74.830549 220.770137 72.049299 C 220.770137 70.617007 221.056595 69.10659 221.629512 67.518049 C 222.207637 65.924298 223.124304 64.278465 224.379512 62.580548 C 225.744095 60.721173 227.369095 58.965965 229.254512 57.320131 C 231.155554 55.674298 233.129512 54.325339 235.176388 53.268048 C 237.233679 52.200339 239.20243 51.663881 241.072221 51.663881 C 242.436805 51.663881 243.790972 51.992006 245.129513 52.648256 C 246.478472 53.304506 247.426388 54.070131 247.978472 54.955548 C 249.129514 55.330548 249.978472 56.10659 250.525347 57.283673 C 251.072222 58.460756 251.348264 59.788881 251.348264 61.273257 C 251.348264 62.91909 251.01493 64.674298 250.343055 66.533674 C 249.692014 68.393049 248.900347 70.117007 247.978472 71.710757 C 245.999305 75.106591 243.582638 77.851383 240.73368 79.934716 C 237.884721 82.007633 234.874304 83.0493 231.702429 83.0493 Z M 233.988888 69.242007 C 233.124304 70.617007 232.442012 71.992007 231.947221 73.356591 C 231.447221 74.721174 231.311804 76.012841 231.525346 77.226383 C 233.608679 76.679508 235.624304 75.762841 237.561804 74.476382 C 239.51493 73.179507 241.270138 71.669091 242.822221 69.945132 C 244.384722 68.215965 245.634722 66.439924 246.572222 64.60659 C 247.509722 62.773257 247.978472 61.059715 247.978472 59.471173 C 247.978472 58.210756 247.587847 57.445131 246.811805 57.163881 C 244.95243 57.76284 242.848263 59.148256 240.494096 61.314923 C 238.139929 63.48159 235.973263 66.122215 233.988888 69.242007 Z M 233.988888 69.242007 " stroke="#bfbfbf" stroke-width="6.16461" stroke-opacity="1" stroke-miterlimit="4"/><g fill="#000000" fill-opacity="1"><g transform="translate(79.941935, 196.564588)"><g><path d="M 12.703125 2.40625 C 11.304688 2.40625 10.113281 2.164062 9.125 1.6875 C 8.132812 1.21875 7.289062 0.410156 6.59375 -0.734375 C 4.25 -2.503906 3.078125 -5.015625 3.078125 -8.265625 C 3.078125 -10.566406 3.660156 -12.976562 4.828125 -15.5 C 6.003906 -18.03125 7.609375 -20.554688 9.640625 -23.078125 C 11.679688 -25.609375 14.054688 -28.035156 16.765625 -30.359375 C 19.472656 -32.679688 22.367188 -34.785156 25.453125 -36.671875 C 28.410156 -38.523438 31.222656 -39.929688 33.890625 -40.890625 C 36.566406 -41.859375 38.910156 -42.34375 40.921875 -42.34375 C 41.953125 -42.34375 42.847656 -42.175781 43.609375 -41.84375 C 44.367188 -41.519531 45.140625 -40.90625 45.921875 -40 C 46.953125 -38.769531 47.492188 -37.875 47.546875 -37.3125 C 47.609375 -36.757812 47.476562 -36.445312 47.15625 -36.375 C 41.9375 -34.726562 37.078125 -32.660156 32.578125 -30.171875 C 28.078125 -27.679688 24.117188 -24.988281 20.703125 -22.09375 C 17.296875 -19.195312 14.582031 -16.257812 12.5625 -13.28125 C 10.550781 -10.300781 9.445312 -7.5 9.25 -4.875 C 9.570312 -4.707031 10.082031 -4.625 10.78125 -4.625 C 12.101562 -4.625 13.625 -4.835938 15.34375 -5.265625 C 17.070312 -5.703125 18.890625 -6.300781 20.796875 -7.0625 C 22.710938 -7.820312 24.570312 -8.703125 26.375 -9.703125 C 28.1875 -10.710938 29.832031 -11.773438 31.3125 -12.890625 C 31.84375 -13.296875 32.109375 -13.273438 32.109375 -12.828125 C 32.109375 -12.085938 31.953125 -11.222656 31.640625 -10.234375 C 31.335938 -9.242188 30.921875 -8.441406 30.390625 -7.828125 C 28.617188 -5.773438 26.707031 -3.976562 24.65625 -2.4375 C 22.601562 -0.894531 20.554688 0.296875 18.515625 1.140625 C 16.484375 1.984375 14.546875 2.40625 12.703125 2.40625 Z M 12.703125 2.40625 "/></g></g></g><g fill="#000000" fill-opacity="1"><g transform="translate(108.357877, 196.564588)"><g><path d="M 4.5625 1.171875 C 3.65625 1.171875 2.546875 0.71875 1.234375 -0.1875 C 0.535156 -0.675781 0.0234375 -1.15625 -0.296875 -1.625 C -0.628906 -2.101562 -0.796875 -2.671875 -0.796875 -3.328125 C -0.796875 -4.398438 -0.445312 -5.5625 0.25 -6.8125 C 0.945312 -8.0625 2.035156 -9.675781 3.515625 -11.65625 C 5.398438 -14.195312 6.957031 -16.398438 8.1875 -18.265625 C 9.425781 -20.140625 10.25 -21.46875 10.65625 -22.25 C 10.820312 -22.582031 11.234375 -22.726562 11.890625 -22.6875 C 13.171875 -22.601562 14.28125 -22.316406 15.21875 -21.828125 C 15.675781 -21.578125 15.992188 -21.171875 16.171875 -20.609375 C 16.359375 -20.054688 16.289062 -19.101562 15.96875 -17.75 C 17.65625 -19.1875 19.296875 -20.425781 20.890625 -21.46875 C 22.492188 -22.519531 24.160156 -23.539062 25.890625 -24.53125 C 26.992188 -25.144531 27.648438 -25.453125 27.859375 -25.453125 C 28.109375 -25.453125 28.285156 -25.265625 28.390625 -24.890625 C 28.492188 -24.523438 28.546875 -24.179688 28.546875 -23.859375 C 28.546875 -23.566406 28.441406 -23.304688 28.234375 -23.078125 C 28.023438 -22.859375 27.738281 -22.601562 27.375 -22.3125 C 24.488281 -20.21875 21.515625 -17.660156 18.453125 -14.640625 C 15.398438 -11.617188 12.101562 -7.679688 8.5625 -2.828125 C 7.707031 -1.640625 7.039062 -0.757812 6.5625 -0.1875 C 6.09375 0.382812 5.722656 0.753906 5.453125 0.921875 C 5.179688 1.085938 4.882812 1.171875 4.5625 1.171875 Z M 4.5625 1.171875 "/></g></g></g><g fill="#000000" fill-opacity="1"><g transform="translate(124.445705, 196.564588)"><g><path d="M 8.75 1.546875 C 7.4375 1.546875 6.304688 1.296875 5.359375 0.796875 C 4.410156 0.304688 3.53125 -0.367188 2.71875 -1.234375 C 1.28125 -2.796875 0.5625 -4.625 0.5625 -6.71875 C 0.5625 -7.789062 0.773438 -8.921875 1.203125 -10.109375 C 1.628906 -11.296875 2.316406 -12.53125 3.265625 -13.8125 C 4.296875 -15.207031 5.519531 -16.519531 6.9375 -17.75 C 8.351562 -18.988281 9.832031 -20.003906 11.375 -20.796875 C 12.914062 -21.597656 14.382812 -22 15.78125 -22 C 16.8125 -22 17.828125 -21.753906 18.828125 -21.265625 C 19.835938 -20.773438 20.546875 -20.203125 20.953125 -19.546875 C 21.816406 -19.253906 22.453125 -18.664062 22.859375 -17.78125 C 23.273438 -16.894531 23.484375 -15.898438 23.484375 -14.796875 C 23.484375 -13.554688 23.234375 -12.238281 22.734375 -10.84375 C 22.242188 -9.445312 21.648438 -8.15625 20.953125 -6.96875 C 19.472656 -4.414062 17.664062 -2.359375 15.53125 -0.796875 C 13.394531 0.765625 11.132812 1.546875 8.75 1.546875 Z M 10.484375 -8.8125 C 9.828125 -7.789062 9.3125 -6.765625 8.9375 -5.734375 C 8.570312 -4.703125 8.46875 -3.734375 8.625 -2.828125 C 10.1875 -3.242188 11.695312 -3.929688 13.15625 -4.890625 C 14.613281 -5.859375 15.925781 -6.988281 17.09375 -8.28125 C 18.269531 -9.582031 19.207031 -10.921875 19.90625 -12.296875 C 20.601562 -13.671875 20.953125 -14.957031 20.953125 -16.15625 C 20.953125 -17.09375 20.664062 -17.664062 20.09375 -17.875 C 18.695312 -17.425781 17.113281 -16.390625 15.34375 -14.765625 C 13.582031 -13.140625 11.960938 -11.15625 10.484375 -8.8125 Z M 10.484375 -8.8125 "/></g></g></g><g fill="#000000" fill-opacity="1"><g transform="translate(144.540167, 196.564588)"><g><path d="M -10.296875 18.0625 C -10.742188 18.144531 -11.140625 18.21875 -11.484375 18.28125 C -11.835938 18.34375 -12.140625 18.375 -12.390625 18.375 C -12.835938 18.375 -13.164062 18.226562 -13.375 17.9375 C -13.582031 17.644531 -13.5 17.171875 -13.125 16.515625 C -9.96875 10.847656 -7 5.640625 -4.21875 0.890625 C -1.445312 -3.847656 1.128906 -8.03125 3.515625 -11.65625 C 5.242188 -14.28125 6.609375 -16.351562 7.609375 -17.875 C 8.617188 -19.394531 9.390625 -20.523438 9.921875 -21.265625 C 10.453125 -22.003906 10.851562 -22.472656 11.125 -22.671875 C 11.394531 -22.878906 11.628906 -22.984375 11.828125 -22.984375 C 12.035156 -22.984375 12.300781 -22.929688 12.625 -22.828125 C 12.957031 -22.734375 13.472656 -22.519531 14.171875 -22.1875 C 14.796875 -21.945312 15.300781 -21.648438 15.6875 -21.296875 C 16.070312 -20.941406 16.265625 -20.476562 16.265625 -19.90625 C 18.523438 -20.8125 20.519531 -21.265625 22.25 -21.265625 C 23.070312 -21.265625 23.78125 -21.109375 24.375 -20.796875 C 24.96875 -20.492188 25.515625 -20.113281 26.015625 -19.65625 C 27.078125 -18.675781 27.609375 -17.21875 27.609375 -15.28125 C 27.609375 -13.800781 27.207031 -12.238281 26.40625 -10.59375 C 25.613281 -8.957031 24.554688 -7.359375 23.234375 -5.796875 C 22.171875 -4.523438 20.9375 -3.414062 19.53125 -2.46875 C 18.132812 -1.519531 16.738281 -0.785156 15.34375 -0.265625 C 13.945312 0.242188 12.675781 0.5 11.53125 0.5 C 10.207031 0.5 9.207031 0.285156 8.53125 -0.140625 C 7.851562 -0.578125 7.226562 -1.085938 6.65625 -1.671875 C 5.007812 0.921875 3.40625 3.410156 1.84375 5.796875 C 0.28125 8.179688 -1.050781 10.15625 -2.15625 11.71875 C -3.382812 13.394531 -4.441406 14.65625 -5.328125 15.5 C -6.210938 16.34375 -7.035156 16.925781 -7.796875 17.25 C -8.554688 17.582031 -9.390625 17.851562 -10.296875 18.0625 Z M 9 -5.546875 C 11.007812 -5.992188 12.90625 -6.753906 14.6875 -7.828125 C 16.476562 -8.898438 18.0625 -10.113281 19.4375 -11.46875 C 20.820312 -12.820312 21.894531 -14.132812 22.65625 -15.40625 C 23.414062 -16.6875 23.773438 -17.753906 23.734375 -18.609375 C 22.421875 -18.453125 20.910156 -17.898438 19.203125 -16.953125 C 17.492188 -16.003906 15.488281 -14.566406 13.1875 -12.640625 C 12.570312 -11.609375 11.914062 -10.484375 11.21875 -9.265625 C 10.519531 -8.054688 9.78125 -6.816406 9 -5.546875 Z M 9 -5.546875 "/></g></g></g><g fill="#000000" fill-opacity="1"><g transform="translate(168.333062, 196.564588)"><g><path d="M 15.59375 -26.625 C 15.300781 -26.914062 15.34375 -27.265625 15.71875 -27.671875 C 16.5 -28.617188 17.347656 -29.75 18.265625 -31.0625 C 19.191406 -32.382812 19.925781 -33.492188 20.46875 -34.390625 C 20.632812 -34.640625 20.835938 -34.722656 21.078125 -34.640625 C 22.722656 -33.984375 23.851562 -33.117188 24.46875 -32.046875 C 24.882812 -31.304688 24.757812 -30.546875 24.09375 -29.765625 C 22.613281 -28.210938 21.585938 -27.25 21.015625 -26.875 C 20.484375 -26.539062 19.96875 -26.320312 19.46875 -26.21875 C 18.976562 -26.125 18.40625 -26.078125 17.75 -26.078125 C 17.46875 -26.078125 17.078125 -26.125 16.578125 -26.21875 C 16.085938 -26.320312 15.757812 -26.457031 15.59375 -26.625 Z M 6.171875 2.09375 C 5.503906 2.09375 4.84375 1.945312 4.1875 1.65625 C 3.53125 1.375 2.9375 1.046875 2.40625 0.671875 C 1.875 0.265625 1.421875 -0.128906 1.046875 -0.515625 C 0.679688 -0.910156 0.394531 -1.3125 0.1875 -1.71875 C -0.425781 -2.914062 -0.476562 -4.273438 0.03125 -5.796875 C 0.539062 -7.316406 1.703125 -9.269531 3.515625 -11.65625 C 5.203125 -13.914062 6.597656 -15.863281 7.703125 -17.5 C 8.816406 -19.144531 9.578125 -20.378906 9.984375 -21.203125 C 10.359375 -21.898438 10.632812 -22.320312 10.8125 -22.46875 C 11 -22.613281 11.300781 -22.625 11.71875 -22.5 C 12.53125 -22.207031 13.347656 -21.945312 14.171875 -21.71875 C 14.992188 -21.5 15.613281 -21.285156 16.03125 -21.078125 C 16.8125 -20.671875 17.222656 -20.015625 17.265625 -19.109375 C 17.304688 -18.203125 16.789062 -17.03125 15.71875 -15.59375 C 14.976562 -14.601562 14.15625 -13.503906 13.25 -12.296875 C 12.34375 -11.085938 11.476562 -9.84375 10.65625 -8.5625 C 9.84375 -7.289062 9.132812 -6.066406 8.53125 -4.890625 C 7.9375 -3.722656 7.578125 -2.707031 7.453125 -1.84375 C 8.890625 -2.050781 10.59375 -2.84375 12.5625 -4.21875 C 14.539062 -5.59375 16.867188 -8.070312 19.546875 -11.65625 L 19.71875 -11.890625 C 19.925781 -12.179688 20.082031 -12.347656 20.1875 -12.390625 C 20.289062 -12.429688 20.382812 -12.410156 20.46875 -12.328125 L 20.65625 -12.140625 C 20.976562 -11.816406 21.015625 -11.425781 20.765625 -10.96875 L 20.59375 -10.65625 C 19.9375 -9.59375 19.039062 -8.34375 17.90625 -6.90625 C 16.78125 -5.46875 15.523438 -4.054688 14.140625 -2.671875 C 12.765625 -1.296875 11.378906 -0.160156 9.984375 0.734375 C 8.585938 1.640625 7.316406 2.09375 6.171875 2.09375 Z M 6.171875 2.09375 "/></g></g></g><g fill="#000000" fill-opacity="1"><g transform="translate(180.414257, 196.564588)"><g><path d="M 8.75 1.546875 C 7.4375 1.546875 6.304688 1.296875 5.359375 0.796875 C 4.410156 0.304688 3.53125 -0.367188 2.71875 -1.234375 C 1.28125 -2.796875 0.5625 -4.625 0.5625 -6.71875 C 0.5625 -7.789062 0.773438 -8.921875 1.203125 -10.109375 C 1.628906 -11.296875 2.316406 -12.53125 3.265625 -13.8125 C 4.296875 -15.207031 5.519531 -16.519531 6.9375 -17.75 C 8.351562 -18.988281 9.832031 -20.003906 11.375 -20.796875 C 12.914062 -21.597656 14.382812 -22 15.78125 -22 C 16.8125 -22 17.828125 -21.753906 18.828125 -21.265625 C 19.835938 -20.773438 20.546875 -20.203125 20.953125 -19.546875 C 21.816406 -19.253906 22.453125 -18.664062 22.859375 -17.78125 C 23.273438 -16.894531 23.484375 -15.898438 23.484375 -14.796875 C 23.484375 -13.554688 23.234375 -12.238281 22.734375 -10.84375 C 22.242188 -9.445312 21.648438 -8.15625 20.953125 -6.96875 C 19.472656 -4.414062 17.664062 -2.359375 15.53125 -0.796875 C 13.394531 0.765625 11.132812 1.546875 8.75 1.546875 Z M 10.484375 -8.8125 C 9.828125 -7.789062 9.3125 -6.765625 8.9375 -5.734375 C 8.570312 -4.703125 8.46875 -3.734375 8.625 -2.828125 C 10.1875 -3.242188 11.695312 -3.929688 13.15625 -4.890625 C 14.613281 -5.859375 15.925781 -6.988281 17.09375 -8.28125 C 18.269531 -9.582031 19.207031 -10.921875 19.90625 -12.296875 C 20.601562 -13.671875 20.953125 -14.957031 20.953125 -16.15625 C 20.953125 -17.09375 20.664062 -17.664062 20.09375 -17.875 C 18.695312 -17.425781 17.113281 -16.390625 15.34375 -14.765625 C 13.582031 -13.140625 11.960938 -11.15625 10.484375 -8.8125 Z M 10.484375 -8.8125 "/></g></g></g><g fill="#00bf63" fill-opacity="1"><g transform="translate(213.411947, 202.845572)"><g><path d="M 12.609375 -17.90625 C 12.691406 -18 13.207031 -18.097656 14.15625 -18.203125 C 15.113281 -18.316406 16.234375 -18.707031 17.515625 -19.375 C 17.554688 -19.375 17.53125 -19.898438 17.4375 -20.953125 C 17.3125 -22.816406 17.203125 -24.144531 17.109375 -24.9375 C 17.023438 -26 16.9375 -26.75 16.84375 -27.1875 C 16.84375 -28.03125 16.515625 -29.78125 15.859375 -32.4375 L 12.9375 -22.546875 C 12.3125 -19.804688 12.066406 -18.128906 12.203125 -17.515625 Z M 3.640625 -15.984375 L 4.046875 -18.90625 C 4.046875 -19.476562 4.132812 -20.050781 4.3125 -20.625 C 4.3125 -21.375 4.6875 -22.503906 5.4375 -24.015625 C 5.4375 -24.097656 5.632812 -24.671875 6.03125 -25.734375 C 6.03125 -25.828125 6.453125 -27.132812 7.296875 -29.65625 L 8.09375 -31.578125 C 8.09375 -31.753906 8.203125 -32.09375 8.421875 -32.59375 C 8.640625 -33.101562 8.804688 -33.613281 8.921875 -34.125 C 9.035156 -34.632812 9.179688 -35.132812 9.359375 -35.625 C 9.972656 -36.8125 10.523438 -37.828125 11.015625 -38.671875 C 11.941406 -40.441406 13.664062 -41.238281 16.1875 -41.0625 L 18.3125 -40.859375 C 19.632812 -40.503906 20.648438 -40.128906 21.359375 -39.734375 C 22.378906 -39.335938 23.0625 -38.90625 23.40625 -38.4375 C 23.757812 -37.96875 23.914062 -37.207031 23.875 -36.15625 C 23.914062 -35.625 24.046875 -33.320312 24.265625 -29.25 C 24.492188 -25.1875 24.609375 -23.128906 24.609375 -23.078125 L 24.9375 -20.234375 C 24.9375 -19.960938 25.425781 -16.773438 26.40625 -10.671875 L 27.859375 -6.03125 C 28.742188 -3.5625 29.21875 -2.269531 29.28125 -2.15625 C 29.351562 -2.039062 29.539062 -1.566406 29.84375 -0.734375 C 30.332031 0.722656 29.914062 1.695312 28.59375 2.1875 C 27.394531 2.363281 26.507812 2.253906 25.9375 1.859375 C 25.71875 1.859375 25.207031 1.660156 24.40625 1.265625 C 24.320312 1.035156 24.066406 0.820312 23.640625 0.625 C 23.222656 0.425781 22.945312 0.257812 22.8125 0.125 C 22.332031 0 21.890625 -0.679688 21.484375 -1.921875 C 21.359375 -2.015625 21.117188 -2.367188 20.765625 -2.984375 C 20.453125 -3.597656 20.363281 -4.109375 20.5 -4.515625 C 20.1875 -4.910156 20.03125 -5.726562 20.03125 -6.96875 C 19.632812 -7.625 19.4375 -8.660156 19.4375 -10.078125 C 19.4375 -11.492188 19.210938 -12.597656 18.765625 -13.390625 C 16.515625 -12.378906 14.109375 -11.828125 11.546875 -11.734375 C 11.054688 -11.734375 10.8125 -11.644531 10.8125 -11.46875 C 10.8125 -11.070312 10.675781 -10.367188 10.40625 -9.359375 L 9.28125 -2.0625 C 9.726562 1.21875 9.332031 2.945312 8.09375 3.125 C 7.738281 3.125 7.148438 3.207031 6.328125 3.375 C 5.515625 3.550781 4.84375 3.398438 4.3125 2.921875 C 3.289062 2.347656 2.570312 1.757812 2.15625 1.15625 C 1.738281 0.5625 1.550781 -0.109375 1.59375 -0.859375 C 1.632812 -1.484375 1.742188 -2.8125 1.921875 -4.84375 C 2.015625 -4.925781 2.046875 -5.421875 2.015625 -6.328125 C 1.992188 -7.234375 2.050781 -7.929688 2.1875 -8.421875 L 3.25 -12.53125 C 3.382812 -12.625 3.5625 -13.289062 3.78125 -14.53125 C 3.738281 -14.613281 3.71875 -14.832031 3.71875 -15.1875 Z M 3.640625 -15.984375 "/></g></g></g><g fill="#00bf63" fill-opacity="1"><g transform="translate(240.141682, 202.845572)"><g><path d="M 25 -36.484375 C 25.132812 -35.910156 25.023438 -35.519531 24.671875 -35.3125 C 24.316406 -35.113281 23.953125 -35.015625 23.578125 -35.015625 C 23.203125 -35.015625 22.21875 -34.972656 20.625 -34.890625 C 19.613281 -34.671875 18.597656 -34.382812 17.578125 -34.03125 L 17.515625 -34.03125 C 17.515625 -33.226562 17.289062 -32.054688 16.84375 -30.515625 C 16.84375 -29.984375 16.734375 -29.117188 16.515625 -27.921875 C 16.515625 -27.566406 16.445312 -27.210938 16.3125 -26.859375 C 16.1875 -26.503906 16.125 -25.953125 16.125 -25.203125 C 15.8125 -23.390625 15.675781 -22.394531 15.71875 -22.21875 C 15.757812 -22.039062 15.757812 -21.796875 15.71875 -21.484375 C 15.675781 -21.179688 15.585938 -20.71875 15.453125 -20.09375 C 15.316406 -19.476562 15.25 -18.75 15.25 -17.90625 C 15.25 -17.0625 15.140625 -16.3125 14.921875 -15.65625 L 14.921875 -14.921875 C 15.015625 -13.328125 14.957031 -12.195312 14.75 -11.53125 C 14.550781 -10.875 14.453125 -10.3125 14.453125 -9.84375 C 14.453125 -9.382812 14.34375 -8.664062 14.125 -7.6875 C 13.90625 -6.71875 13.835938 -5.570312 13.921875 -4.25 L 14.328125 -4.25 C 15.429688 -4.332031 16.015625 -4.363281 16.078125 -4.34375 C 16.148438 -4.320312 16.453125 -4.378906 16.984375 -4.515625 L 18.046875 -4.4375 L 18.703125 -4.4375 C 18.835938 -4.4375 19.125 -4.269531 19.5625 -3.9375 C 20.0.8812 -3.613281 20.320312 -3.296875 20.5 -2.984375 C 20.800781 -2.671875 20.894531 -2.367188 20.78125 -2.078125 C 20.675781 -1.796875 20.179688 -1.320312 19.296875 -0.65625 L 18.046875 -0.265625 C 17.910156 -0.128906 17.597656 0.0234375 17.109375 0.203125 C 16.628906 0.378906 16.210938 0.46875 15.859375 0.46875 C 14.835938 0.6875 14.238281 1.0625 14.0625 1.59375 C 13.882812 1.945312 12.820312 2.078125 10.875 1.984375 L 8.625 1.984375 L 7.359375 2.390625 C 6.253906 2.828125 5.28125 2.9375 4.4375 2.71875 C 3.601562 2.5 3.039062 2.332031 2.75 2.21875 C 2.46875 2.113281 2.125 1.894531 1.71875 1.5625 C 1.320312 1.226562 1.15625 0.847656 1.21875 0.421875 C 1.289062 0.00390625 1.4375 -0.597656 1.65625 -1.390625 C 2.40625 -2.015625 2.9375 -2.414062 3.25 -2.59375 C 5.375 -3.25 6.722656 -3.6875 7.296875 -3.90625 C 7.296875 -5.375 7.25 -6.238281 7.15625 -6.5 C 7.289062 -6.539062 7.445312 -7.492188 7.625 -9.359375 C 7.664062 -9.535156 7.554688 -9.953125 7.296875 -10.609375 L 7.296875 -11.015625 C 7.429688 -12.253906 7.410156 -13.378906 7.234375 -14.390625 C 7.234375 -14.429688 7.320312 -15.207031 7.5 -16.71875 C 7.71875 -16.976562 7.71875 -17.6875 7.5 -18.84375 C 7.675781 -19.675781 7.828125 -20.335938 7.953125 -20.828125 L 8.03125 -21.75 C 8.03125 -22.019531 8.160156 -22.816406 8.421875 -24.140625 L 8.421875 -24.8125 L 8.5625 -25.34375 C 9.351562 -28.613281 9.878906 -31 10.140625 -32.5 C 9.796875 -32.414062 9.578125 -32.375 9.484375 -32.375 L 7.296875 -32.03125 C 5.617188 -31.59375 4.140625 -31.96875 2.859375 -33.15625 C 1.742188 -34.664062 1.71875 -35.953125 2.78125 -37.015625 C 3.445312 -37.585938 4.46875 -37.984375 5.84375 -38.203125 C 7.03125 -38.597656 7.800781 -38.882812 8.15625 -39.0625 C 8.601562 -39.0625 9.644531 -39.550781 11.28125 -40.53125 C 12.914062 -40.75 13.863281 -40.859375 14.125 -40.859375 L 17.25 -41.25 C 17.644531 -41.300781 18.171875 -41.269531 18.828125 -41.15625 C 19.492188 -41.039062 19.894531 -40.894531 20.03125 -40.71875 C 20.601562 -40.59375 21.3125 -40.328125 22.15625 -39.921875 L 23.75 -38.46875 C 24.363281 -37.582031 24.78125 -36.921875 25 -36.484375 Z M 25 -36.484375 "/></g></g></g></svg>